<?xml version="1.0" encoding="utf-8"?>
<svg version="1.1" id="Layer_1" x="0px" y="0px" viewBox="0 0 700 700" style="enable-background:new 0 0 700 700;" xmlns="http://www.w3.org/2000/svg">
  <style type="text/css">
	.st0{fill:#FB503B;}
</style>
  <path class="st0" d="M 676.967 348.071 C 672.512 343.156 611.986 267.267 601.233 254.363 C 590.479 241.459 585.41 243.763 578.804 244.839 C 572.198 245.914 495.542 258.665 486.632 260.201 C 477.722 261.737 472.192 265.27 477.569 272.951 C 482.484 279.711 532.872 351.297 543.932 366.967 L 343.458 415.05 L 184.308 148.519 C 178.01 139.148 176.627 135.769 162.187 136.537 C 147.747 137.151 37.14 146.368 29.306 146.983 C 21.471 147.597 12.715 151.131 20.703 169.719 C 28.537 188.307 154.199 458.985 157.732 466.82 C 161.265 474.654 170.329 487.405 191.682 482.335 C 213.496 477.112 289.23 457.295 330.554 446.542 C 352.368 486.176 397.072 566.365 405.214 577.887 C 416.274 593.249 423.802 590.637 440.7 585.568 C 453.911 581.574 647.165 512.137 655.921 508.451 C 664.678 504.917 670.054 502.306 664.063 493.549 C 659.762 487.097 608.76 418.89 582.03 383.097 C 600.311 378.181 665.292 360.975 672.359 358.978 C 680.347 356.981 681.422 352.987 676.967 348.071 Z M 312.581 422.577 C 310.123 423.038 197.98 449.921 191.989 451.304 C 185.998 452.687 185.998 451.918 185.383 449.921 C 184.769 447.924 51.888 174.02 50.044 170.64 C 48.201 167.261 48.354 164.496 50.044 164.496 C 51.734 164.496 156.042 155.125 159.729 154.971 C 163.416 154.818 162.955 155.586 164.337 157.89 C 164.337 157.89 311.352 411.67 313.963 416.125 C 316.575 420.734 315.039 422.116 312.581 422.577 Z M 629.191 481.874 C 631.035 484.64 632.725 486.483 627.194 488.48 C 621.51 490.477 437.166 552.693 433.633 554.229 C 430.1 555.766 427.181 556.226 422.573 549.621 C 417.964 543.015 358.052 439.168 358.052 439.168 L 553.457 388.32 C 558.373 386.784 559.909 385.708 562.981 390.624 C 566.054 395.54 627.348 479.109 629.191 481.874 Z M 641.635 343.156 C 637.18 344.077 565.439 361.897 565.439 361.897 L 506.756 281.4 C 505.067 279.096 503.684 276.792 507.832 276.177 C 511.979 275.563 578.65 263.58 581.569 262.966 C 584.642 262.351 587.253 261.43 590.94 266.499 C 594.627 271.569 645.322 335.782 647.319 338.24 C 649.316 340.698 646.09 342.234 641.635 343.156 Z"/>
</svg>